<svg version="1.1" id="Layer_1" xmlns="http://www.w3.org/2000/svg" xmlns:xlink="http://www.w3.org/1999/xlink" x="0px" y="0px"
	 width="100%" viewBox="0 0 608 480" enable-background="new 0 0 608 480" xml:space="preserve">
  <defs>
    <linearGradient id="blueGradient" x1="0%" y1="0%" x2="100%" y2="100%">
      <stop offset="0%" style="stop-color:#0033cc;stop-opacity:1" />
      <stop offset="100%" style="stop-color:#66ccff;stop-opacity:1" />
    </linearGradient>
  </defs>
  <path fill="url(#blueGradient)" opacity="1.000000" stroke="none" 
	d="
M444.904541,362.902344 
	C420.677612,387.858948 393.966156,409.358490 366.504303,429.997894 
	C363.072662,432.577026 360.512054,432.282440 357.178192,429.928955 
	C305.679535,393.573608 258.541534,352.224426 215.406784,306.293213 
	C209.476425,299.978394 204.162750,293.114838 199.203354,285.993408 
	C185.163422,265.832916 185.530899,245.398193 197.765198,224.575699 
	C207.231186,208.464828 219.897003,195.013092 232.834915,181.782211 
	C238.170609,176.325699 243.793533,171.150040 249.153870,165.974060 
	C251.539093,166.638428 252.264389,168.430115 253.268829,169.913513 
	C264.106415,185.919205 274.577911,202.166092 284.303192,218.868179 
	C291.938873,231.981613 297.606445,245.820175 296.297729,261.465973 
	C295.284912,273.574036 291.104553,284.807861 285.907104,295.663208 
	C283.176056,301.367371 280.124603,306.921570 277.105377,312.482452 
	C276.071655,314.386414 275.391907,315.841431 277.415466,317.702515 
	C302.804504,341.053314 328.400513,364.140717 356.306305,384.537567 
	C360.365417,387.504486 363.205109,387.725891 367.095398,384.566498 
	C394.680328,362.164246 421.919586,339.449585 442.625031,310.065765 
	C454.104614,293.774750 461.455383,275.905365 462.414581,255.925247 
	C463.106842,241.505264 458.733032,227.999496 452.622925,215.040314 
	C442.643311,193.874283 427.390350,176.785065 410.883118,160.617538 
	C385.706024,135.958527 356.581970,116.641716 326.845764,98.122665 
	C311.570923,88.609848 296.178802,79.305534 280.388702,70.664711 
	C278.104767,69.414871 275.644287,68.263710 274.086792,66.090446 
	C274.157898,65.620605 274.086548,65.172447 274.271301,65.002052 
	C289.649689,50.819862 309.287445,48.065250 327.299316,57.870998 
	C366.052216,78.968262 403.030304,102.640457 434.926971,133.490036 
	C454.686768,152.601105 471.904449,173.595047 484.059448,198.554749 
	C501.794342,234.972427 501.750793,271.287323 484.799896,307.844482 
	C475.133789,328.691010 460.903351,346.215759 444.904541,362.902344 
M236.726791,230.241058 
	C234.592789,233.003616 232.370621,235.703079 230.340500,238.539978 
	C222.789383,249.092072 223.162125,259.928650 231.166901,270.183594 
	C235.579437,275.836517 240.558228,280.955994 245.539062,286.080994 
	C246.534592,287.105347 247.385712,288.533386 249.872635,288.175720 
	C254.074265,279.401093 259.004944,270.561066 260.612091,260.390472 
	C261.827759,252.697189 259.230438,246.057526 254.875778,239.824783 
	C251.131119,234.465103 247.720642,228.871918 244.181335,223.411209 
	C240.762039,225.331650 239.128128,227.683640 236.726791,230.241058 
z"/>
  <path fill="url(#blueGradient)" opacity="1.000000" stroke="none" 
	d="
M213.025253,105.016998 
	C222.458588,97.314003 231.645370,89.869514 240.779297,82.360695 
	C243.036163,80.505371 244.981628,79.680130 247.874985,81.564194 
	C281.809479,103.661224 315.377686,126.297890 346.839355,151.837830 
	C370.124084,170.739914 393.018158,190.170944 411.523071,214.064224 
	C419.765991,224.707352 426.257721,236.208878 427.676758,250.029495 
	C428.643311,259.443146 426.842133,268.257141 422.755035,276.639008 
	C413.806000,294.991699 399.613525,309.074280 384.814667,322.602509 
	C378.302368,328.555664 371.428040,334.111786 364.882599,340.030151 
	C362.542511,342.146057 360.963745,342.436859 358.780457,339.845825 
	C343.211212,321.369202 329.707733,301.757874 322.659027,278.236969 
	C315.981415,255.954483 321.364014,235.838181 332.873169,216.695847 
	C335.960144,211.561539 339.273163,206.545486 342.769714,201.681702 
	C344.867676,198.763367 344.535248,196.932266 341.824158,194.580719 
	C320.785278,176.332062 298.842194,159.267349 275.756134,143.688354 
	C267.335266,138.005768 258.736206,132.587173 250.316650,126.902679 
	C247.752991,125.171799 245.580795,124.961922 243.071762,126.869499 
	C213.260330,149.534515 186.526443,175.097092 167.808395,207.995667 
	C147.528824,243.638763 151.186661,277.753113 175.117203,310.322876 
	C198.783173,342.532562 227.493271,369.725739 258.872467,394.222992 
	C282.928345,413.003021 307.892914,430.457489 334.684540,445.183136 
	C335.824738,445.809814 336.835358,446.672180 337.674225,447.261658 
	C337.934662,448.564789 337.522980,449.310028 336.828186,449.800201 
	C319.431580,462.074615 303.638702,467.453857 283.577209,454.961273 
	C234.731583,424.544373 191.099106,387.879852 154.811951,343.021210 
	C137.424561,321.526703 124.717232,297.497498 120.321548,269.723755 
	C117.558517,252.265778 119.693413,235.259125 124.853836,218.490723 
	C133.015747,191.969208 148.297348,169.747665 166.367935,149.159378 
	C180.478073,133.083298 196.213486,118.744331 213.025253,105.016998 
M378.410980,230.093964 
	C377.505829,229.117447 376.669861,228.063171 375.679718,227.182159 
	C374.091644,225.769073 372.469574,222.631775 370.158203,225.804489 
	C364.291748,233.857208 357.752838,241.732468 355.553497,251.703690 
	C352.588013,265.148468 359.694916,276.165802 365.490814,287.342468 
	C366.675720,289.627441 368.565216,288.737610 370.024414,287.257263 
	C376.684509,280.500366 383.516266,273.871460 388.420990,265.637817 
	C392.694702,258.463409 392.759186,251.148422 388.714722,243.814117 
	C386.040222,238.964157 382.249634,234.950607 378.410980,230.093964 
z"/>
</svg>
